# xmcd
#
# Track frame offsets: 
#        187
#        21112
#        40462
#        62512
#        85912
#        104362
#        129562
#        151762
#        174112
#        196237
#        216150
#
# Disc length: 3210 seconds
#
# Revision: 2
# Processed by: cddbd v1.5.2PL0 Copyright (c) Steve Scherf et al.
# Submitted via: ExactAudioCopyFreeDBPlugin 1.0
#
DISCID=880c880b
DTITLE=Joe Grushecky and The Houserockers - Swimming With The Sharks
DYEAR=1991
DGENRE=Rock
TTITLE0=Sweat It Out
TTITLE1=Swimming With The Sharks
TTITLE2=When The Crows Go Crazy
TTITLE3=I Can't Control Myself
TTITLE4=Killer On The Loose
TTITLE5=Howling At The Moon
TTITLE6=Born To Love You
TTITLE7=Oh Estelle
TTITLE8=I Won't Apologize
TTITLE9=Sad Sad Story
TTITLE10=It's The Same Thing
EXTD=ARD Rounder Records CD 9030
EXTT0=
EXTT1=
EXTT2=
EXTT3=
EXTT4=
EXTT5=
EXTT6=
EXTT7=
EXTT8=
EXTT9=
EXTT10=
PLAYORDER=
